Coordinates
version=1
nRows=26
nColumns=24
inDegrees=yes

Units are S.I. units (second, meters, Newtons, ...)
Angles are in degrees.

endheader
time	pelvis_tilt	pelvis_list	pelvis_rotation	pelvis_tx	pelvis_ty	pelvis_tz	hip_flexion_r	hip_adduction_r	hip_rotation_r	knee_angle_r	ankle_angle_r	subtalar_angle_r	mtp_angle_r	hip_flexion_l	hip_adduction_l	hip_rotation_l	knee_angle_l	ankle_angle_l	subtalar_angle_l	mtp_angle_l	lumbar_extension	lumbar_bending	lumbar_rotation
      3.13500000	      7.10921604	      0.04428376	     -0.48018708	      0.80123973	      1.00315423	      0.01086173	    -19.32158368	     -2.85840153	     -5.40480903	    -28.48036566	      4.34362444	      9.95619976	     40.95692585	     13.94095208	      0.55137092	     -9.26895358	    -13.16906395	     -5.38436155	     -0.23209374	     21.12101361	    -19.69307560	      0.55965452	      3.54792262
      3.14000000	      7.08347461	      0.22399486	     -0.49012984	      0.80664622	      1.00394776	      0.00974407	    -18.49733614	     -3.29479880	     -5.62253723	    -30.22205568	      3.42109593	     10.08382884	     40.94186119	     13.70648217	      0.79945406	     -9.28887877	    -13.28866208	     -5.24255532	     -0.30019241	     21.00702683	    -19.69016131	      0.36325811	      3.48731428
      3.14500000	      6.95564887	      0.32600472	     -0.46906203	      0.81186667	      1.00457621	      0.00857500	    -17.51563411	     -3.63617325	     -5.77881802	    -31.99456639	      2.42923293	     10.09815457	     40.88438544	     13.61603260	      0.97777184	     -9.21968693	    -13.45515077	     -5.02660383	     -0.40769499	     20.47276836	    -19.58903411	      0.26582937	      3.42590083
      3.15000000	      6.92195770	      0.51923647	     -0.52171797	      0.81716043	      1.00531998	      0.00752838	    -16.62092722	     -4.09436938	     -5.89003985	    -33.76457112	      1.49827612	      9.98485397	     40.76995246	     13.33381905	      1.24094212	     -9.29741430	    -13.46534552	     -4.84677700	     -0.39552898	     20.21177377	    -19.58017211	      0.04564081	      3.40342323
      3.15500000	      6.79630396	      0.64171235	     -0.54574301	      0.82226665	      1.00591542	      0.00645939	    -15.58710002	     -4.45676526	     -5.92195885	    -35.55286739	      0.58901246	      9.89451878	     39.61768087	     13.19849622	      1.43234551	     -9.31769824	    -13.57527620	     -4.25583848	     -0.17767534	     17.27761791	    -19.48580514	     -0.08708894	      3.35669213
      3.16000000	      6.70802175	      0.80698179	     -0.61973464	      0.82737950	      1.00654517	      0.00547538	    -14.57275165	     -4.87342128	     -5.92158973	    -37.32811833	     -0.34262560	      9.60322373	     39.42157411	     12.96443212	      1.66395910	     -9.43335853	    -13.55003602	     -4.09490997	     -0.15632121	     17.17473277	    -19.42517079	     -0.27973393	      3.35752159
      3.16500000	      6.51523423	      0.91135244	     -0.66126647	      0.83232006	      1.00701221	      0.00445787	    -13.41146492	     -5.19809168	     -5.85252810	    -39.12254111	     -1.12571269	      9.40758520	     37.25944316	     12.88180264	      1.84027380	     -9.45392931	    -13.59505622	     -3.66664510	     -0.09765824	     15.37269785	    -19.26333968	     -0.39424162	      3.31438890
      3.17000000	      6.37903428	      1.03619784	     -0.77760780	      0.83726506	      1.00754096	      0.00362831	    -12.29771068	     -5.53998224	     -5.69656523	    -40.86232986	     -2.01146861	      8.97563323	     36.88841597	     12.70133454	      2.01277103	     -9.63147267	    -13.56942076	     -3.42646728	     -0.02445152	     15.21284861	    -19.15857102	     -0.56037798	      3.34105276
      3.17500000	      6.21868608	      1.15838439	     -0.82696847	      0.84210902	      1.00801572	      0.00269338	    -11.15432212	     -5.85401927	     -5.58685793	    -42.60146912	     -2.59579355	      8.60953939	     34.05270736	     12.55786905	      2.20517384	     -9.68024019	    -13.55239457	     -3.04679460	      0.07328128	     13.52038775	    -19.03351364	     -0.69778599	      3.29337163
      3.18000000	      6.04419507	      1.27277321	     -0.92748339	      0.84692956	      1.00847229	      0.00190733	     -9.97971174	     -6.14341737	     -5.39077011	    -44.28941392	     -3.23685800	      8.09921210	     32.32681980	     12.41829338	      2.36983169	     -9.81843531	    -13.51517731	     -2.73947000	      0.16819055	     12.68117545	    -18.88996346	     -0.84713117	      3.28689971
      3.18500000	      5.92270611	      1.36719842	     -1.07599429	      0.85171740	      1.00899986	      0.00126561	     -8.86263493	     -6.38584700	     -5.10571013	    -45.89469516	     -3.91315615	      7.42538455	     31.89811835	     12.21614137	      2.49320394	    -10.05686653	    -13.47111416	     -2.47416355	      0.31051345	     12.56179997	    -18.80666352	     -0.99411970	      3.32176176
      3.19000000	      5.75477790	      1.47591464	     -1.12984508	      0.85644007	      1.00942385	      0.00047644	     -7.70211014	     -6.62791855	     -4.93454285	    -47.50077428	     -4.18616097	      6.90996176	     28.62609981	     12.07651054	      2.66365998	    -10.09284724	    -13.43421173	     -2.09184499	      0.39278479	     10.98591237	    -18.67156151	     -1.12418639	      3.25824838
      3.19500000	      5.67315797	      1.56476903	     -1.29967152	      0.86117511	      1.01001561	     -0.00000587	     -6.63118436	     -6.81590871	     -4.59606312	    -48.99120894	     -4.65752393	      6.12112312	     28.26725725	     11.82260736	      2.76913410	    -10.35717551	    -13.37594235	     -1.82629299	      0.57566426	     10.92347397	    -18.63057009	     -1.28122473	      3.30224948
      3.20000000	      5.52093430	      1.65812975	     -1.37042732	      0.86585737	      1.01047396	     -0.00067474	     -5.49844306	     -6.99719156	     -4.36689186	    -50.46546647	     -4.72992311	      5.53806076	     25.27264355	     11.65843940	      2.91320468	    -10.41683229	    -13.32438056	     -1.44806300	      0.68316561	      9.55827614	    -18.51238729	     -1.40318780	      3.23305276
      3.20500000	      5.48407251	      1.73139729	     -1.52977101	      0.87053274	      1.01110913	     -0.00111296	     -4.49146670	     -7.13098113	     -4.03190471	    -51.83040293	     -4.96038291	      4.69977153	     24.97947764	     11.35971734	      3.00533484	    -10.63978481	    -13.26524669	     -1.17082900	      0.85031708	      9.51268274	    -18.51811095	     -1.53965738	      3.26920468
      3.21000000	      5.35151312	      1.80893373	     -1.59908148	      0.87513573	      1.01159547	     -0.00168081	     -3.39172307	     -7.25108329	     -3.78332922	    -53.17410189	     -4.82306261	      4.03548963	     22.62685175	     11.18131689	      3.12881124	    -10.66068817	    -13.22095974	     -0.83097590	      0.90005322	      8.50049981	    -18.42590728	     -1.65097791	      3.19199919
      3.21500000	      5.32524964	      1.87017633	     -1.75664292	      0.87980641	      1.01225797	     -0.00204643	     -2.41678543	     -7.33410497	     -3.43969573	    -54.40106482	     -4.83891136	      3.22639394	     22.39020969	     10.85967507	      3.20758584	    -10.87091365	    -13.14182640	     -0.55018423	      1.08808114	      8.46251053	    -18.43911780	     -1.77604154	      3.20652340
      3.22000000	      5.21042313	      1.93360255	     -1.83601169	      0.88440376	      1.01276742	     -0.00250101	     -1.35510513	     -7.40321732	     -3.17256853	    -55.59478830	     -4.65229160	      2.50243222	     21.67086240	     10.65860421	      3.30242325	    -10.93313526	    -13.09358243	     -0.26935389	      1.23326249	      8.16598608	    -18.36090212	     -1.88081380	      3.13143998
      3.22500000	      5.20020099	      1.99616930	     -1.94681655	      0.88901126	      1.01344899	     -0.00291378	     -0.42140577	     -7.45938772	     -2.87310176	    -56.70003458	     -4.30160493	      1.84030625	     19.80269818	     10.31431374	      3.40899106	    -10.98105484	    -12.98994480	      0.06022361	      1.24020390	      7.30542760	    -18.39738221	     -1.99274153	      3.08880512
      3.23000000	      5.27476122	      2.07107112	     -2.04046753	      0.89368079	      1.01425326	     -0.00329746	      0.38550770	     -7.52474750	     -2.61633455	    -57.69399370	     -4.05236433	      1.11824269	     19.74056737	      9.86647089	      3.52766206	    -11.07471658	    -12.86702401	      0.26414494	      1.31883509	      7.31493298	    -18.51969664	     -2.11946601	      2.99733691
      3.23500000	      5.22644068	      2.08397215	     -2.18185867	      0.89824789	      1.01487346	     -0.00359498	      1.35485047	     -7.48670021	     -2.26036712	    -58.65588325	     -3.72322239	      0.47496607	     19.53891267	      9.56031212	      3.56649276	    -11.16967206	    -12.75814843	      0.54860898	      1.40975553	      7.25838630	    -18.50905330	     -2.18627877	      3.01439080
      3.24000000	      5.20647768	      2.12136693	     -2.27661444	      0.90282546	      1.01551847	     -0.00394736	      2.26774325	     -7.47354782	     -1.97234271	    -59.53998790	     -3.34666451	     -0.13235838	     19.30449483	      9.22399442	      3.64592709	    -11.19677952	    -12.64448311	      0.78622589	      1.43016433	      7.16611354	    -18.53237512	     -2.26782950	      2.96068402
      3.24500000	      5.21179141	      2.15724149	     -2.36669278	      0.90739411	      1.01619831	     -0.00428596	      3.13902479	     -7.44899158	     -1.69049526	    -60.34869533	     -2.92193264	     -0.67068228	     19.02632210	      8.85410262	      3.72567047	    -11.21902606	    -12.51691543	      1.02603864	      1.46728305	      7.04673707	    -18.58202017	     -2.34760916	      2.89665349
      3.25000000	      5.29370574	      2.20450032	     -2.40622654	      0.91199699	      1.01697266	     -0.00468382	      3.88922342	     -7.44320913	     -1.48717329	    -61.05850030	     -2.50028909	     -1.18865508	     18.94850523	      8.39186076	      3.83232530	    -11.18213118	    -12.36991872	      1.22763829	      1.49375911	      7.02689770	    -18.71529996	     -2.42790657	      2.77450590
      3.25500000	      5.22410379	      2.22571539	     -2.47242168	      0.91651224	      1.01750271	     -0.00504830	      4.82991238	     -7.38439189	     -1.22234198	    -61.74708656	     -1.99795794	     -1.54651586	     18.38655797	      8.11541642	      3.89579441	    -11.16517864	    -12.26281152	      1.52874326	      1.57792811	      6.77529153	    -18.68193539	     -2.47826308	      2.71131478
      3.26000000	      5.32427579	      2.24869994	     -2.53727251	      0.92109717	      1.01829807	     -0.00538104	      5.53671761	     -7.32381583	     -0.97884784	    -62.30052796	     -1.53838151	     -1.95130878	     18.34684081	      7.62020140	      3.97624442	    -11.15707986	    -12.08732759	      1.70184286	      1.56146915	      6.76062680	    -18.83382452	     -2.53834341	      2.62582253
